<svg width="40" height="40" viewBox="0 0 40 40" fill="none" xmlns="http://www.w3.org/2000/svg">
<g clip-path="url(#clip0_425_6205)">
<mask id="path-1-inside-1_425_6205" fill="white">
<path d="M0 20C0 8.95431 8.95431 0 20 0C31.0457 0 40 8.95431 40 20C40 31.0457 31.0457 40 20 40C8.95431 40 0 31.0457 0 20Z"/>
</mask>
<path d="M0 20C0 8.95431 8.95431 0 20 0C31.0457 0 40 8.95431 40 20C40 31.0457 31.0457 40 20 40C8.95431 40 0 31.0457 0 20Z" fill="#F8CB46"/>
<path d="M-1 20C-1 8.40202 8.40202 -1 20 -1H21C32.598 -1 42 8.40202 42 20H38C38 9.50659 29.9411 1 20 1C9.50659 1 1 9.50659 1 20H-1ZM42 20C42 32.1503 32.1503 42 20 42C8.40202 42 -1 32.598 -1 21L1 20C1 29.9411 9.50659 38 20 38C29.9411 38 38 29.9411 38 20H42ZM20 42C8.40202 42 -1 32.598 -1 21V20C-1 8.40202 8.40202 -1 20 -1V1C9.50659 1 1 9.50659 1 20C1 29.9411 9.50659 38 20 38V42ZM21 -1C32.598 -1 42 8.40202 42 20C42 32.1503 32.1503 42 20 42V38C29.9411 38 38 29.9411 38 20C38 9.50659 29.9411 1 20 1L21 -1Z" fill="#2E1401" mask="url(#path-1-inside-1_425_6205)"/>
<g clip-path="url(#clip1_425_6205)">
<path fill-rule="evenodd" clip-rule="evenodd" d="M23.628 26.8223C23.8956 26.8612 24.1572 26.8807 24.4115 26.8807C26.6967 26.8807 28.4146 25.3279 28.7921 22.8223L29.7756 16.2377C30.1941 13.4521 28.6803 11.3095 26.0085 10.9064L21.4441 10.2194L21.4428 10.2187L21.4416 10.2181C18.765 9.82877 16.6956 11.4318 16.2782 14.2182L15.2936 20.8028C14.8751 23.5884 16.39 25.732 19.0618 26.1341L23.628 26.8223ZM25.2416 17.9911C25.2785 17.9962 25.3154 17.9993 25.3524 17.9993C25.7288 17.9993 26.057 17.7224 26.1124 17.3398C26.1739 16.9193 25.8826 16.5295 25.4611 16.469L20.8508 15.8013C20.4242 15.7408 20.0406 16.0331 19.9801 16.4526C19.9185 16.8731 20.2098 17.2629 20.6303 17.3244L25.2416 17.9911ZM22.8683 21.4167C22.9052 21.4219 22.9421 21.4249 22.979 21.4249C23.3554 21.4249 23.6836 21.149 23.739 20.7655C23.8006 20.3449 23.5093 19.9552 23.0878 19.8947L20.3226 19.4937C19.9042 19.4372 19.5113 19.7234 19.4508 20.1449C19.3903 20.5655 19.6816 20.9552 20.1021 21.0157L22.8683 21.4167Z" fill="#2E1401"/>
<path d="M21.4874 28.0552L18.8316 27.656C15.3065 27.1237 13.2265 24.2119 13.7721 20.574L14.7567 13.9904C14.7743 13.8728 14.6624 13.7755 14.5495 13.8126L13.0764 14.2966C11.8507 14.6986 10.9297 15.4535 10.4138 16.4802C9.87433 17.5509 9.82202 18.8709 10.263 20.195L12.34 26.514C13.0395 28.6278 14.6313 29.8401 16.5318 29.8401C17.0364 29.8401 17.5625 29.755 18.0999 29.5776L21.521 28.4529C21.7263 28.3855 21.7012 28.0874 21.4874 28.0552Z" fill="#2E1401"/>
</g>
</g>
<defs>
<clipPath id="clip0_425_6205">
<rect width="40" height="40" fill="white"/>
</clipPath>
<clipPath id="clip1_425_6205">
<rect x="9.61523" y="10" width="20.7692" height="20" rx="3.84615" fill="white"/>
</clipPath>
</defs>
</svg>
